<?xml version="1.0" encoding="UTF-8"?>
<svg xmlns="http://www.w3.org/2000/svg" xmlns:xlink="http://www.w3.org/1999/xlink" width="14pt" height="14pt" viewBox="0 0 14 14" version="1.1">
<g id="surface1">
<path style="fill-rule:nonzero;fill:rgb(0%,0%,0%);fill-opacity:1;stroke-width:15;stroke-linecap:butt;stroke-linejoin:miter;stroke:rgb(0%,0%,0%);stroke-opacity:1;stroke-miterlimit:4;" d="M 1707.03125 1707.03125 L 1628.90625 1776.785714 C 1587.053571 1724.888393 1536.272321 1720.424107 1477.120536 1762.834821 C 1412.388393 1798.549107 1394.53125 1845.982143 1422.991071 1906.25 L 1325.892857 1945.870536 C 1304.129464 1882.8125 1257.8125 1860.491071 1186.941964 1880.022321 C 1114.397321 1891.183036 1080.915179 1930.245536 1087.053571 1996.09375 L 983.258929 2000 C 983.816964 1933.59375 947.544643 1896.763393 875 1891.183036 C 803.013393 1876.116071 758.370536 1901.227679 741.071429 1965.959821 L 641.741071 1934.151786 C 665.178571 1871.09375 643.415179 1824.776786 577.008929 1795.200893 C 515.066964 1756.138393 464.84375 1764.508929 425.78125 1819.196429 L 343.75 1755.022321 C 387.834821 1704.241071 383.928571 1653.459821 330.915179 1602.120536 C 285.714286 1544.642857 235.491071 1535.15625 180.803571 1574.21875 L 125 1484.933036 C 183.59375 1452.566964 197.544643 1402.901786 165.736607 1337.053571 C 142.857143 1267.857143 98.772321 1241.629464 34.040179 1258.928571 L 12.276786 1156.25 C 78.125 1146.205357 107.700893 1104.352679 101.004464 1031.25 C 102.120536 958.147321 69.754464 919.084821 3.90625 912.946429 L 17.857143 809.151786 C 84.263393 821.428571 126.116071 792.410714 143.973214 722.098214 C 170.758929 654.017857 154.017857 605.46875 93.75 577.008929 L 142.857143 484.933036 C 200.334821 518.973214 249.441964 506.138393 290.736607 445.870536 C 339.84375 391.183036 340.401786 340.401786 292.96875 292.96875 L 371.09375 223.214286 C 412.946429 275.111607 463.727679 279.575893 522.879464 237.165179 C 587.611607 201.450893 605.46875 154.017857 577.008929 93.75 L 674.107143 54.129464 C 695.870536 117.1875 742.1875 139.508929 813.058036 119.977679 C 885.602679 108.816964 919.084821 69.754464 912.946429 3.90625 L 1016.741071 0 C 1016.183036 66.40625 1052.455357 103.236607 1125 108.816964 C 1196.986607 123.883929 1241.629464 98.772321 1258.928571 34.040179 L 1358.258929 65.848214 C 1334.821429 128.90625 1356.584821 175.223214 1422.991071 204.799107 C 1484.933036 243.861607 1535.15625 235.491071 1574.21875 180.803571 L 1656.25 244.977679 L 1535.15625 405.133929 C 1210.379464 113.28125 712.053571 135.602679 415.178571 454.799107 C 117.745536 774.553571 131.138393 1272.879464 444.754464 1575.892857 C 758.928571 1878.90625 1257.254464 1874.441964 1565.848214 1565.848214 " transform="matrix(0.007,0,0,0.007,0,0)"/>
<path style="fill-rule:nonzero;fill:rgb(0%,0%,0%);fill-opacity:1;stroke-width:15;stroke-linecap:butt;stroke-linejoin:miter;stroke:rgb(0%,0%,0%);stroke-opacity:1;stroke-miterlimit:4;" d="M 1468.191964 479.910714 C 1184.151786 224.330357 747.767857 243.861607 487.723214 522.879464 C 227.120536 802.455357 238.839286 1238.839286 513.950893 1503.90625 C 788.504464 1768.973214 1224.888393 1765.066964 1494.977679 1494.977679 L 1353.794643 1353.794643 C 1161.272321 1546.316964 849.330357 1549.107143 653.459821 1359.375 C 457.589286 1170.200893 449.21875 858.816964 635.044643 659.040179 C 820.870536 459.821429 1132.254464 445.870536 1334.821429 627.790179 " transform="matrix(0.007,0,0,0.007,0,0)"/>
</g>
</svg>
